<?xml version="1.0" standalone="no"?>
<!DOCTYPE svg PUBLIC "-//W3C//DTD SVG 20010904//EN"
 "http://www.w3.org/TR/2001/REC-SVG-20010904/DTD/svg10.dtd">
<svg version="1.0" xmlns="http://www.w3.org/2000/svg"
 width="502.000000pt" height="444.000000pt" viewBox="0 0 502.000000 444.000000"
 preserveAspectRatio="xMidYMid meet">

<g transform="translate(0.000000,444.000000) scale(0.100000,-0.100000)"
fill="#742C2D" stroke="none">
<path d="M2386 4175 c11 -104 274 -3589 271 -3592 -3 -2 -2107 766 -2116 773
-5 4 583 923 591 924 5 0 1095 -1228 1217 -1372 6 -7 141 9 150 17 3 4 -1056
1306 -1156 1421 -44 51 -51 63 -40 76 6 9 242 167 522 352 281 185 511 341
513 345 2 5 -3 23 -10 39 l-13 31 -495 -309 c-272 -170 -496 -307 -498 -305
-3 2 790 1247 831 1305 10 13 9 13 -5 0 -41 -38 -2017 -2625 -2011 -2631 7 -7
2776 -1138 2779 -1135 1 1 -83 804 -186 1786 -104 982 -187 1786 -186 1788 7
6 790 -814 794 -832 2 -7 -20 -120 -48 -252 -28 -131 -52 -245 -53 -253 -2
-12 28 -14 173 -12 96 0 229 4 295 7 l120 5 380 -397 c209 -218 380 -400 380
-404 0 -4 -322 -294 -715 -645 -745 -664 -731 -652 -715 -643 36 21 1701 1191
1703 1198 2 4 -202 237 -453 516 -378 421 -462 510 -488 515 -18 4 -133 10
-257 14 -124 4 -227 8 -228 10 -2 2 17 97 43 211 25 114 45 213 43 220 -2 7
-64 82 -138 166 -166 188 -932 1042 -971 1083 l-29 29 6 -49z"/>
</g>
</svg>
