<?xml version="1.0" standalone="no"?>
<!DOCTYPE svg PUBLIC "-//W3C//DTD SVG 20010904//EN"
 "http://www.w3.org/TR/2001/REC-SVG-20010904/DTD/svg10.dtd">
<svg version="1.0" xmlns="http://www.w3.org/2000/svg"
 width="1688.000000pt" height="412.000000pt" viewBox="0 0 1688.000000 412.000000"
 preserveAspectRatio="xMidYMid meet">

<g transform="translate(0.000000,412.000000) scale(0.100000,-0.100000)"
fill="#fff" stroke="none">
<path d="M2266 4065 c11 -104 274 -3589 271 -3592 -3 -2 -2107 766 -2116 773
-5 4 583 923 591 924 5 0 1095 -1228 1217 -1372 6 -7 141 9 150 17 3 4 -1056
1306 -1156 1421 -44 51 -51 63 -40 76 6 9 242 167 522 352 281 185 511 341
513 345 2 5 -3 23 -10 39 l-13 31 -495 -309 c-272 -170 -496 -307 -498 -305
-3 2 790 1247 831 1305 10 13 9 13 -5 0 -41 -38 -2017 -2625 -2011 -2631 7 -7
2776 -1138 2779 -1135 1 1 -83 804 -186 1786 -104 982 -187 1786 -186 1788 7
6 790 -814 794 -832 2 -7 -20 -120 -48 -252 -28 -131 -52 -245 -53 -253 -2
-12 28 -14 173 -12 96 0 229 4 295 7 l120 5 380 -397 c209 -218 380 -400 380
-404 0 -4 -322 -294 -715 -645 -745 -664 -731 -652 -715 -643 36 21 1701 1191
1703 1198 2 4 -202 237 -453 516 -378 421 -462 510 -488 515 -18 4 -133 10
-257 14 -124 4 -227 8 -228 10 -2 2 17 97 43 211 25 114 45 213 43 220 -2 7
-64 82 -138 166 -166 188 -932 1042 -971 1083 l-29 29 6 -49z"/>
<path d="M5143 2568 c-12 -16 -11 -1397 0 -1415 10 -16 59 -17 75 -1 9 9 12
97 12 333 0 401 0 400 106 269 27 -33 67 -83 89 -110 22 -27 63 -76 91 -109
28 -33 106 -129 173 -213 68 -83 132 -159 144 -167 28 -19 107 -20 107 -1 0 7
-17 33 -38 57 -21 24 -100 120 -176 212 -75 93 -145 176 -155 186 -9 9 -30 35
-46 56 -17 22 -58 73 -92 112 -71 82 -81 123 -42 159 12 10 71 80 132 154 61
74 145 174 186 222 246 284 240 273 155 266 -45 -4 -61 -10 -76 -29 -10 -13
-27 -33 -37 -44 -23 -26 -315 -372 -364 -433 -22 -26 -59 -69 -83 -96 -73 -81
-74 -76 -74 278 0 222 -3 305 -12 314 -16 16 -63 15 -75 0z"/>
<path d="M10302 2468 c-9 -9 -12 -170 -12 -664 0 -550 2 -653 14 -663 11 -9
119 -11 418 -9 385 3 406 5 461 25 131 50 216 148 237 274 13 78 7 162 -17
221 -20 49 -110 131 -168 153 -25 10 -45 24 -45 31 0 8 4 14 9 14 5 0 31 17
58 39 90 70 126 207 94 353 -22 104 -112 185 -242 218 -66 18 -111 20 -434 20
-268 0 -364 -3 -373 -12z m772 -89 c76 -17 131 -56 163 -114 25 -44 28 -60 27
-135 0 -58 -6 -95 -17 -116 -21 -41 -80 -92 -136 -118 -43 -20 -65 -21 -372
-24 -261 -3 -328 -1 -337 10 -10 13 -17 216 -13 416 1 72 4 84 20 90 33 12
608 5 665 -9z m70 -616 c72 -27 119 -62 154 -116 25 -37 27 -48 26 -136 0
-101 -13 -140 -66 -203 -32 -38 -127 -79 -206 -88 -102 -13 -639 -7 -652 6
-18 18 -18 527 0 549 12 15 46 16 349 13 316 -3 340 -5 395 -25z"/>
<path d="M13570 2180 c-240 -32 -423 -192 -471 -412 -18 -84 -7 -238 23 -318
43 -116 133 -218 243 -273 98 -49 159 -61 305 -61 119 1 144 4 207 26 150 53
247 135 306 258 57 121 70 235 42 372 -50 233 -213 376 -468 408 -89 11 -105
11 -187 0z m223 -75 c102 -21 171 -57 236 -123 87 -87 124 -169 135 -300 19
-235 -118 -427 -349 -488 -67 -18 -227 -18 -298 1 -92 24 -167 68 -230 134
-66 69 -92 121 -112 224 -70 366 231 634 618 552z"/>
<path d="M6705 2158 c-3 -7 -4 -240 -3 -518 l3 -505 30 0 c24 0 30 5 35 30 9
44 6 978 -3 993 -5 6 -19 12 -33 12 -14 0 -27 -6 -29 -12z"/>
<path d="M7572 2158 c-9 -9 -12 -137 -12 -515 0 -546 -2 -523 53 -509 l23 5
-1 436 c0 239 3 435 8 435 6 0 348 -504 427 -631 46 -73 97 -66 156 24 23 34
88 134 146 222 58 88 140 214 184 280 l79 120 5 -445 5 -445 24 -3 c13 -2 28
1 34 7 14 14 18 972 6 1009 -9 25 -46 30 -70 10 -9 -7 -45 -58 -81 -113 -36
-55 -103 -158 -150 -230 -222 -341 -260 -396 -271 -392 -13 4 -26 24 -232 337
-71 107 -157 239 -193 293 -75 114 -107 138 -140 105z"/>
<path d="M12314 2159 c-11 -18 -8 -1009 4 -1021 5 -5 20 -8 33 -6 l24 3 0 515
0 515 -27 3 c-14 2 -29 -2 -34 -9z"/>
<path d="M14955 2159 c-11 -17 -9 -1009 3 -1021 5 -5 20 -8 33 -6 l24 3 3 453
c1 276 6 452 12 450 5 -2 102 -113 215 -248 365 -433 509 -604 537 -632 30
-32 82 -38 92 -12 3 9 6 237 6 509 0 524 0 522 -47 513 -28 -5 -31 -50 -31
-491 0 -224 -3 -411 -6 -414 -8 -8 7 -25 -174 192 -210 252 -339 405 -371 440
-15 17 -67 78 -115 137 -48 59 -97 115 -109 123 -25 17 -63 20 -72 4z"/>
<path d="M16673 2158 c-7 -9 -11 -183 -11 -510 0 -533 -1 -524 50 -516 l23 3
0 515 0 515 -26 3 c-14 2 -30 -3 -36 -10z"/>
<path d="M5094 986 c-3 -7 -4 -40 -2 -72 l3 -59 5868 -3 5867 -2 0 75 0 75
-5865 0 c-4941 0 -5866 -2 -5871 -14z"/>
</g>
</svg>
